<mxfile host="app.diagrams.net" modified="2023-11-15T11:48:51.936Z" agent="Mozilla/5.0 (Windows NT 10.0; Win64; x64) AppleWebKit/537.36 (KHTML, like Gecko) Chrome/119.0.0.0 Safari/537.36" etag="RVBea6MKcbQXTQvew7su" version="22.1.1" type="github">
  <diagram name="Page-1" id="97916047-d0de-89f5-080d-49f4d83e522f">
    <mxGraphModel dx="2963" dy="1611" grid="1" gridSize="10" guides="1" tooltips="1" connect="1" arrows="1" fold="1" page="1" pageScale="1.5" pageWidth="1654" pageHeight="1169" background="none" math="0" shadow="0">
      <root>
        <mxCell id="0" />
        <mxCell id="1" parent="0" />
        <mxCell id="QYUV3FebLu_o-XNJqs9x-66" value="" style="edgeStyle=orthogonalEdgeStyle;rounded=0;orthogonalLoop=1;jettySize=auto;html=1;fillColor=#e1d5e7;strokeColor=#000000;" edge="1" parent="1" source="3" target="QYUV3FebLu_o-XNJqs9x-65">
          <mxGeometry relative="1" as="geometry">
            <Array as="points">
              <mxPoint x="540" y="310" />
              <mxPoint x="130" y="310" />
            </Array>
          </mxGeometry>
        </mxCell>
        <mxCell id="QYUV3FebLu_o-XNJqs9x-69" style="edgeStyle=orthogonalEdgeStyle;rounded=0;orthogonalLoop=1;jettySize=auto;html=1;exitX=0.5;exitY=1;exitDx=0;exitDy=0;fillColor=#e1d5e7;strokeColor=#000000;" edge="1" parent="1" source="3" target="QYUV3FebLu_o-XNJqs9x-68">
          <mxGeometry relative="1" as="geometry" />
        </mxCell>
        <mxCell id="QYUV3FebLu_o-XNJqs9x-88" style="edgeStyle=orthogonalEdgeStyle;rounded=0;orthogonalLoop=1;jettySize=auto;html=1;exitX=0.5;exitY=1;exitDx=0;exitDy=0;entryX=0.5;entryY=0;entryDx=0;entryDy=0;fillColor=#e1d5e7;strokeColor=#000000;" edge="1" parent="1" source="3" target="QYUV3FebLu_o-XNJqs9x-87">
          <mxGeometry relative="1" as="geometry" />
        </mxCell>
        <mxCell id="3" value="CTRL" style="rounded=1;shadow=1;fontStyle=1;fontSize=14;fillColor=#e1d5e7;strokeColor=#000000;" parent="1" vertex="1">
          <mxGeometry x="430" y="190" width="220" height="60" as="geometry" />
        </mxCell>
        <mxCell id="50" value="" style="edgeStyle=elbowEdgeStyle;elbow=vertical;strokeWidth=4;endArrow=block;endFill=1;fontStyle=1;strokeColor=#23445D;" parent="1" target="24" edge="1">
          <mxGeometry x="72" y="165.5" width="100" height="100" as="geometry">
            <mxPoint x="1192" y="675.5" as="sourcePoint" />
            <mxPoint x="172" y="165.5" as="targetPoint" />
          </mxGeometry>
        </mxCell>
        <mxCell id="51" value="" style="edgeStyle=elbowEdgeStyle;elbow=vertical;strokeWidth=4;endArrow=block;endFill=1;fontStyle=1;strokeColor=#23445D;" parent="1" target="25" edge="1">
          <mxGeometry x="72" y="175.5" width="100" height="100" as="geometry">
            <mxPoint x="1192" y="765.5" as="sourcePoint" />
            <mxPoint x="172" y="175.5" as="targetPoint" />
          </mxGeometry>
        </mxCell>
        <mxCell id="52" value="" style="edgeStyle=elbowEdgeStyle;elbow=vertical;strokeWidth=4;endArrow=block;endFill=1;fontStyle=1;strokeColor=#23445D;" parent="1" target="26" edge="1">
          <mxGeometry x="72" y="185.5" width="100" height="100" as="geometry">
            <mxPoint x="1192" y="855.5" as="sourcePoint" />
            <mxPoint x="172" y="185.5" as="targetPoint" />
          </mxGeometry>
        </mxCell>
        <mxCell id="53" value="" style="edgeStyle=elbowEdgeStyle;elbow=vertical;strokeWidth=4;endArrow=block;endFill=1;fontStyle=1;strokeColor=#23445D;" parent="1" target="27" edge="1">
          <mxGeometry x="72" y="195.5" width="100" height="100" as="geometry">
            <mxPoint x="1192" y="945.5" as="sourcePoint" />
            <mxPoint x="172" y="195.5" as="targetPoint" />
          </mxGeometry>
        </mxCell>
        <mxCell id="QYUV3FebLu_o-XNJqs9x-100" style="edgeStyle=orthogonalEdgeStyle;rounded=0;orthogonalLoop=1;jettySize=auto;html=1;entryX=0;entryY=0.5;entryDx=0;entryDy=0;fontStyle=0;fontSize=9;fillColor=#e1d5e7;strokeColor=#000000;" edge="1" parent="1" source="QYUV3FebLu_o-XNJqs9x-65">
          <mxGeometry relative="1" as="geometry">
            <mxPoint x="110" y="570" as="targetPoint" />
            <mxPoint x="65" y="375" as="sourcePoint" />
            <Array as="points">
              <mxPoint x="65" y="570" />
            </Array>
          </mxGeometry>
        </mxCell>
        <mxCell id="QYUV3FebLu_o-XNJqs9x-101" style="edgeStyle=orthogonalEdgeStyle;rounded=0;orthogonalLoop=1;jettySize=auto;html=1;exitX=0.25;exitY=1;exitDx=0;exitDy=0;entryX=0;entryY=0.5;entryDx=0;entryDy=0;fontStyle=0;fontSize=9;fillColor=#e1d5e7;strokeColor=#000000;" edge="1" parent="1" source="QYUV3FebLu_o-XNJqs9x-65" target="QYUV3FebLu_o-XNJqs9x-104">
          <mxGeometry relative="1" as="geometry">
            <mxPoint x="80" y="680" as="targetPoint" />
            <Array as="points">
              <mxPoint x="65" y="680" />
            </Array>
          </mxGeometry>
        </mxCell>
        <mxCell id="QYUV3FebLu_o-XNJqs9x-65" value="REQ‐1‐CTRL" style="rounded=1;shadow=1;fontStyle=1;fontSize=15;fillColor=#e1d5e7;strokeColor=#000000;" vertex="1" parent="1">
          <mxGeometry x="10" y="380" width="220" height="60" as="geometry" />
        </mxCell>
        <mxCell id="QYUV3FebLu_o-XNJqs9x-71" style="edgeStyle=orthogonalEdgeStyle;rounded=0;orthogonalLoop=1;jettySize=auto;html=1;exitX=0.5;exitY=1;exitDx=0;exitDy=0;entryX=0.56;entryY=-0.001;entryDx=0;entryDy=0;entryPerimeter=0;fillColor=#e1d5e7;strokeColor=#000000;" edge="1" parent="1" source="3" target="QYUV3FebLu_o-XNJqs9x-70">
          <mxGeometry relative="1" as="geometry" />
        </mxCell>
        <mxCell id="QYUV3FebLu_o-XNJqs9x-103" value="REQ‐1.1‐CTRL" style="rounded=1;shadow=1;fontStyle=1;fontSize=15;fillColor=#e1d5e7;strokeColor=#000000;" vertex="1" parent="1">
          <mxGeometry x="110" y="540" width="220" height="60" as="geometry" />
        </mxCell>
        <mxCell id="QYUV3FebLu_o-XNJqs9x-104" value="REQ‐1.2‐CTRL" style="rounded=1;shadow=1;fontStyle=1;fontSize=15;fillColor=#e1d5e7;strokeColor=#000000;" vertex="1" parent="1">
          <mxGeometry x="110" y="650" width="220" height="60" as="geometry" />
        </mxCell>
        <mxCell id="QYUV3FebLu_o-XNJqs9x-105" style="edgeStyle=orthogonalEdgeStyle;rounded=0;orthogonalLoop=1;jettySize=auto;html=1;exitX=0.25;exitY=1;exitDx=0;exitDy=0;entryX=0;entryY=0.5;entryDx=0;entryDy=0;fontStyle=0;fontSize=9;fillColor=#e1d5e7;strokeColor=#000000;" edge="1" parent="1">
          <mxGeometry relative="1" as="geometry">
            <mxPoint x="395" y="573" as="targetPoint" />
            <mxPoint x="350" y="378" as="sourcePoint" />
            <Array as="points">
              <mxPoint x="350" y="573" />
            </Array>
          </mxGeometry>
        </mxCell>
        <mxCell id="QYUV3FebLu_o-XNJqs9x-106" style="edgeStyle=orthogonalEdgeStyle;rounded=0;orthogonalLoop=1;jettySize=auto;html=1;exitX=0.25;exitY=1;exitDx=0;exitDy=0;entryX=0;entryY=0.5;entryDx=0;entryDy=0;fontStyle=0;fontSize=9;fillColor=#e1d5e7;strokeColor=#000000;" edge="1" parent="1" target="QYUV3FebLu_o-XNJqs9x-108">
          <mxGeometry relative="1" as="geometry">
            <mxPoint x="365" y="680" as="targetPoint" />
            <mxPoint x="350" y="440" as="sourcePoint" />
            <Array as="points">
              <mxPoint x="350" y="680" />
            </Array>
          </mxGeometry>
        </mxCell>
        <mxCell id="QYUV3FebLu_o-XNJqs9x-107" value="REQ‐2.1‐CTRL" style="rounded=1;shadow=1;fontStyle=1;fontSize=15;fillColor=#e1d5e7;strokeColor=#000000;" vertex="1" parent="1">
          <mxGeometry x="395" y="540" width="220" height="60" as="geometry" />
        </mxCell>
        <mxCell id="QYUV3FebLu_o-XNJqs9x-108" value="REQ‐2.2‐CTRL" style="rounded=1;shadow=1;fontStyle=1;fontSize=15;fillColor=#e1d5e7;strokeColor=#000000;" vertex="1" parent="1">
          <mxGeometry x="395" y="650" width="220" height="60" as="geometry" />
        </mxCell>
        <mxCell id="QYUV3FebLu_o-XNJqs9x-109" style="edgeStyle=orthogonalEdgeStyle;rounded=0;orthogonalLoop=1;jettySize=auto;html=1;exitX=0.25;exitY=1;exitDx=0;exitDy=0;entryX=0;entryY=0.5;entryDx=0;entryDy=0;fontStyle=0;fontSize=9;fillColor=#e1d5e7;strokeColor=#000000;" edge="1" parent="1" target="QYUV3FebLu_o-XNJqs9x-111">
          <mxGeometry relative="1" as="geometry">
            <mxPoint x="645" y="565" as="targetPoint" />
            <mxPoint x="630" y="375" as="sourcePoint" />
            <Array as="points">
              <mxPoint x="630" y="570" />
            </Array>
          </mxGeometry>
        </mxCell>
        <mxCell id="QYUV3FebLu_o-XNJqs9x-110" style="edgeStyle=orthogonalEdgeStyle;rounded=0;orthogonalLoop=1;jettySize=auto;html=1;exitX=0.25;exitY=1;exitDx=0;exitDy=0;entryX=0;entryY=0.5;entryDx=0;entryDy=0;fontStyle=0;fontSize=9;fillColor=#e1d5e7;strokeColor=#000000;" edge="1" parent="1" target="QYUV3FebLu_o-XNJqs9x-112">
          <mxGeometry relative="1" as="geometry">
            <mxPoint x="645" y="680" as="targetPoint" />
            <mxPoint x="630" y="440" as="sourcePoint" />
            <Array as="points">
              <mxPoint x="630" y="680" />
            </Array>
          </mxGeometry>
        </mxCell>
        <mxCell id="QYUV3FebLu_o-XNJqs9x-111" value="REQ‐3.1‐CTRL" style="rounded=1;shadow=1;fontStyle=1;fontSize=15;fillColor=#e1d5e7;strokeColor=#000000;" vertex="1" parent="1">
          <mxGeometry x="675" y="540" width="220" height="60" as="geometry" />
        </mxCell>
        <mxCell id="QYUV3FebLu_o-XNJqs9x-112" value="REQ‐3.2‐CTRL" style="rounded=1;shadow=1;fontStyle=1;fontSize=15;fillColor=#e1d5e7;strokeColor=#000000;" vertex="1" parent="1">
          <mxGeometry x="675" y="650" width="220" height="60" as="geometry" />
        </mxCell>
        <mxCell id="QYUV3FebLu_o-XNJqs9x-113" style="edgeStyle=orthogonalEdgeStyle;rounded=0;orthogonalLoop=1;jettySize=auto;html=1;exitX=0.25;exitY=1;exitDx=0;exitDy=0;entryX=0;entryY=0.5;entryDx=0;entryDy=0;fontStyle=0;fontSize=9;fillColor=#e1d5e7;strokeColor=#000000;" edge="1" parent="1" target="QYUV3FebLu_o-XNJqs9x-115">
          <mxGeometry relative="1" as="geometry">
            <mxPoint x="935" y="565" as="targetPoint" />
            <mxPoint x="920" y="375" as="sourcePoint" />
            <Array as="points">
              <mxPoint x="920" y="570" />
            </Array>
          </mxGeometry>
        </mxCell>
        <mxCell id="QYUV3FebLu_o-XNJqs9x-114" style="edgeStyle=orthogonalEdgeStyle;rounded=0;orthogonalLoop=1;jettySize=auto;html=1;exitX=0.25;exitY=1;exitDx=0;exitDy=0;entryX=0;entryY=0.5;entryDx=0;entryDy=0;fontStyle=0;fontSize=9;fillColor=#e1d5e7;strokeColor=#000000;" edge="1" parent="1" target="QYUV3FebLu_o-XNJqs9x-116">
          <mxGeometry relative="1" as="geometry">
            <mxPoint x="935" y="680" as="targetPoint" />
            <mxPoint x="920" y="440" as="sourcePoint" />
            <Array as="points">
              <mxPoint x="920" y="680" />
            </Array>
          </mxGeometry>
        </mxCell>
        <mxCell id="QYUV3FebLu_o-XNJqs9x-115" value="REQ‐4.1‐CTRL" style="rounded=1;shadow=1;fontStyle=1;fontSize=15;fillColor=#e1d5e7;strokeColor=#000000;" vertex="1" parent="1">
          <mxGeometry x="965" y="540" width="220" height="60" as="geometry" />
        </mxCell>
        <mxCell id="QYUV3FebLu_o-XNJqs9x-116" value="REQ‐4.2‐CTRL" style="rounded=1;shadow=1;fontStyle=1;fontSize=15;fillColor=#e1d5e7;strokeColor=#000000;" vertex="1" parent="1">
          <mxGeometry x="965" y="650" width="220" height="60" as="geometry" />
        </mxCell>
        <mxCell id="QYUV3FebLu_o-XNJqs9x-68" value="REQ‐2‐CTRL" style="rounded=1;shadow=1;fontStyle=1;fontSize=14;fillColor=#e1d5e7;strokeColor=#000000;" vertex="1" parent="1">
          <mxGeometry x="290" y="370" width="220" height="60" as="geometry" />
        </mxCell>
        <mxCell id="QYUV3FebLu_o-XNJqs9x-70" value="REQ‐3‐CTRL" style="rounded=1;shadow=1;fontStyle=1;fontSize=14;fillColor=#e1d5e7;strokeColor=#000000;" vertex="1" parent="1">
          <mxGeometry x="550" y="370" width="220" height="60" as="geometry" />
        </mxCell>
        <mxCell id="QYUV3FebLu_o-XNJqs9x-87" value="REQ‐4‐CTRL" style="rounded=1;shadow=1;fontStyle=1;fontSize=14;fillColor=#e1d5e7;strokeColor=#000000;" vertex="1" parent="1">
          <mxGeometry x="810" y="370" width="220" height="60" as="geometry" />
        </mxCell>
        <mxCell id="QYUV3FebLu_o-XNJqs9x-117" value="" style="edgeStyle=orthogonalEdgeStyle;rounded=0;orthogonalLoop=1;jettySize=auto;html=1;fillColor=#d5e8d4;strokeColor=#000000;" edge="1" parent="1" source="QYUV3FebLu_o-XNJqs9x-120" target="QYUV3FebLu_o-XNJqs9x-123">
          <mxGeometry relative="1" as="geometry">
            <Array as="points">
              <mxPoint x="1780" y="320" />
              <mxPoint x="1370" y="320" />
            </Array>
          </mxGeometry>
        </mxCell>
        <mxCell id="QYUV3FebLu_o-XNJqs9x-118" style="edgeStyle=orthogonalEdgeStyle;rounded=0;orthogonalLoop=1;jettySize=auto;html=1;exitX=0.5;exitY=1;exitDx=0;exitDy=0;fillColor=#d5e8d4;strokeColor=#000000;" edge="1" parent="1" source="QYUV3FebLu_o-XNJqs9x-120" target="QYUV3FebLu_o-XNJqs9x-139">
          <mxGeometry relative="1" as="geometry" />
        </mxCell>
        <mxCell id="QYUV3FebLu_o-XNJqs9x-119" style="edgeStyle=orthogonalEdgeStyle;rounded=0;orthogonalLoop=1;jettySize=auto;html=1;exitX=0.5;exitY=1;exitDx=0;exitDy=0;entryX=0.5;entryY=0;entryDx=0;entryDy=0;fillColor=#d5e8d4;strokeColor=#000000;" edge="1" parent="1" source="QYUV3FebLu_o-XNJqs9x-120" target="QYUV3FebLu_o-XNJqs9x-141">
          <mxGeometry relative="1" as="geometry" />
        </mxCell>
        <mxCell id="QYUV3FebLu_o-XNJqs9x-120" value="OPER    " style="rounded=1;shadow=1;fontStyle=1;fontSize=14;fillColor=#d5e8d4;strokeColor=#000000;" vertex="1" parent="1">
          <mxGeometry x="1670" y="200" width="220" height="60" as="geometry" />
        </mxCell>
        <mxCell id="QYUV3FebLu_o-XNJqs9x-121" style="edgeStyle=orthogonalEdgeStyle;rounded=0;orthogonalLoop=1;jettySize=auto;html=1;entryX=0;entryY=0.5;entryDx=0;entryDy=0;fontStyle=0;fontSize=9;fillColor=#d5e8d4;strokeColor=#000000;" edge="1" parent="1" source="QYUV3FebLu_o-XNJqs9x-123">
          <mxGeometry relative="1" as="geometry">
            <mxPoint x="1350" y="580" as="targetPoint" />
            <mxPoint x="1305" y="385" as="sourcePoint" />
            <Array as="points">
              <mxPoint x="1305" y="580" />
            </Array>
          </mxGeometry>
        </mxCell>
        <mxCell id="QYUV3FebLu_o-XNJqs9x-122" style="edgeStyle=orthogonalEdgeStyle;rounded=0;orthogonalLoop=1;jettySize=auto;html=1;exitX=0.25;exitY=1;exitDx=0;exitDy=0;entryX=0;entryY=0.5;entryDx=0;entryDy=0;fontStyle=0;fontSize=9;fillColor=#d5e8d4;strokeColor=#000000;" edge="1" parent="1" source="QYUV3FebLu_o-XNJqs9x-123" target="QYUV3FebLu_o-XNJqs9x-126">
          <mxGeometry relative="1" as="geometry">
            <mxPoint x="1320" y="690" as="targetPoint" />
            <Array as="points">
              <mxPoint x="1305" y="690" />
            </Array>
          </mxGeometry>
        </mxCell>
        <mxCell id="QYUV3FebLu_o-XNJqs9x-123" value="REQ‐1‐OPER" style="rounded=1;shadow=1;fontStyle=1;fontSize=15;fillColor=#d5e8d4;strokeColor=#000000;" vertex="1" parent="1">
          <mxGeometry x="1250" y="390" width="220" height="60" as="geometry" />
        </mxCell>
        <mxCell id="QYUV3FebLu_o-XNJqs9x-124" style="edgeStyle=orthogonalEdgeStyle;rounded=0;orthogonalLoop=1;jettySize=auto;html=1;exitX=0.5;exitY=1;exitDx=0;exitDy=0;entryX=0.56;entryY=-0.001;entryDx=0;entryDy=0;entryPerimeter=0;fillColor=#d5e8d4;strokeColor=#000000;" edge="1" parent="1" source="QYUV3FebLu_o-XNJqs9x-120" target="QYUV3FebLu_o-XNJqs9x-140">
          <mxGeometry relative="1" as="geometry" />
        </mxCell>
        <mxCell id="QYUV3FebLu_o-XNJqs9x-125" value="REQ‐1.1‐OPER" style="rounded=1;shadow=1;fontStyle=1;fontSize=15;fillColor=#d5e8d4;strokeColor=#000000;" vertex="1" parent="1">
          <mxGeometry x="1350" y="550" width="220" height="60" as="geometry" />
        </mxCell>
        <mxCell id="QYUV3FebLu_o-XNJqs9x-126" value="REQ‐1.2‐OPER" style="rounded=1;shadow=1;fontStyle=1;fontSize=15;fillColor=#d5e8d4;strokeColor=#000000;" vertex="1" parent="1">
          <mxGeometry x="1350" y="660" width="220" height="60" as="geometry" />
        </mxCell>
        <mxCell id="QYUV3FebLu_o-XNJqs9x-127" style="edgeStyle=orthogonalEdgeStyle;rounded=0;orthogonalLoop=1;jettySize=auto;html=1;exitX=0.25;exitY=1;exitDx=0;exitDy=0;entryX=0;entryY=0.5;entryDx=0;entryDy=0;fontStyle=0;fontSize=9;fillColor=#d5e8d4;strokeColor=#000000;" edge="1" parent="1">
          <mxGeometry relative="1" as="geometry">
            <mxPoint x="1635" y="583" as="targetPoint" />
            <mxPoint x="1590" y="388" as="sourcePoint" />
            <Array as="points">
              <mxPoint x="1590" y="583" />
            </Array>
          </mxGeometry>
        </mxCell>
        <mxCell id="QYUV3FebLu_o-XNJqs9x-128" style="edgeStyle=orthogonalEdgeStyle;rounded=0;orthogonalLoop=1;jettySize=auto;html=1;exitX=0.25;exitY=1;exitDx=0;exitDy=0;entryX=0;entryY=0.5;entryDx=0;entryDy=0;fontStyle=0;fontSize=9;fillColor=#d5e8d4;strokeColor=#000000;" edge="1" parent="1" target="QYUV3FebLu_o-XNJqs9x-130">
          <mxGeometry relative="1" as="geometry">
            <mxPoint x="1605" y="690" as="targetPoint" />
            <mxPoint x="1590" y="450" as="sourcePoint" />
            <Array as="points">
              <mxPoint x="1590" y="690" />
            </Array>
          </mxGeometry>
        </mxCell>
        <mxCell id="QYUV3FebLu_o-XNJqs9x-129" value="REQ‐2.1‐OPER" style="rounded=1;shadow=1;fontStyle=1;fontSize=15;fillColor=#d5e8d4;strokeColor=#000000;" vertex="1" parent="1">
          <mxGeometry x="1635" y="550" width="220" height="60" as="geometry" />
        </mxCell>
        <mxCell id="QYUV3FebLu_o-XNJqs9x-130" value="REQ‐2.2‐OPER" style="rounded=1;shadow=1;fontStyle=1;fontSize=15;fillColor=#d5e8d4;strokeColor=#000000;" vertex="1" parent="1">
          <mxGeometry x="1635" y="660" width="220" height="60" as="geometry" />
        </mxCell>
        <mxCell id="QYUV3FebLu_o-XNJqs9x-131" style="edgeStyle=orthogonalEdgeStyle;rounded=0;orthogonalLoop=1;jettySize=auto;html=1;exitX=0.25;exitY=1;exitDx=0;exitDy=0;entryX=0;entryY=0.5;entryDx=0;entryDy=0;fontStyle=0;fontSize=9;fillColor=#d5e8d4;strokeColor=#000000;" edge="1" parent="1" target="QYUV3FebLu_o-XNJqs9x-133">
          <mxGeometry relative="1" as="geometry">
            <mxPoint x="1885" y="575" as="targetPoint" />
            <mxPoint x="1870" y="385" as="sourcePoint" />
            <Array as="points">
              <mxPoint x="1870" y="580" />
            </Array>
          </mxGeometry>
        </mxCell>
        <mxCell id="QYUV3FebLu_o-XNJqs9x-132" style="edgeStyle=orthogonalEdgeStyle;rounded=0;orthogonalLoop=1;jettySize=auto;html=1;exitX=0.25;exitY=1;exitDx=0;exitDy=0;entryX=0;entryY=0.5;entryDx=0;entryDy=0;fontStyle=0;fontSize=9;fillColor=#d5e8d4;strokeColor=#000000;" edge="1" parent="1" target="QYUV3FebLu_o-XNJqs9x-134">
          <mxGeometry relative="1" as="geometry">
            <mxPoint x="1885" y="690" as="targetPoint" />
            <mxPoint x="1870" y="450" as="sourcePoint" />
            <Array as="points">
              <mxPoint x="1870" y="690" />
            </Array>
          </mxGeometry>
        </mxCell>
        <mxCell id="QYUV3FebLu_o-XNJqs9x-133" value="REQ‐3.1‐OPER" style="rounded=1;shadow=1;fontStyle=1;fontSize=15;fillColor=#d5e8d4;strokeColor=#000000;" vertex="1" parent="1">
          <mxGeometry x="1915" y="550" width="220" height="60" as="geometry" />
        </mxCell>
        <mxCell id="QYUV3FebLu_o-XNJqs9x-134" value="REQ‐3.2‐OPER" style="rounded=1;shadow=1;fontStyle=1;fontSize=15;fillColor=#d5e8d4;strokeColor=#000000;" vertex="1" parent="1">
          <mxGeometry x="1915" y="660" width="220" height="60" as="geometry" />
        </mxCell>
        <mxCell id="QYUV3FebLu_o-XNJqs9x-135" style="edgeStyle=orthogonalEdgeStyle;rounded=0;orthogonalLoop=1;jettySize=auto;html=1;exitX=0.25;exitY=1;exitDx=0;exitDy=0;entryX=0;entryY=0.5;entryDx=0;entryDy=0;fontStyle=0;fontSize=9;fillColor=#d5e8d4;strokeColor=#000000;" edge="1" parent="1" target="QYUV3FebLu_o-XNJqs9x-137">
          <mxGeometry relative="1" as="geometry">
            <mxPoint x="2175" y="575" as="targetPoint" />
            <mxPoint x="2160" y="385" as="sourcePoint" />
            <Array as="points">
              <mxPoint x="2160" y="580" />
            </Array>
          </mxGeometry>
        </mxCell>
        <mxCell id="QYUV3FebLu_o-XNJqs9x-136" style="edgeStyle=orthogonalEdgeStyle;rounded=0;orthogonalLoop=1;jettySize=auto;html=1;exitX=0.25;exitY=1;exitDx=0;exitDy=0;entryX=0;entryY=0.5;entryDx=0;entryDy=0;fontStyle=0;fontSize=9;fillColor=#d5e8d4;strokeColor=#000000;" edge="1" parent="1" target="QYUV3FebLu_o-XNJqs9x-138">
          <mxGeometry relative="1" as="geometry">
            <mxPoint x="2175" y="690" as="targetPoint" />
            <mxPoint x="2160" y="450" as="sourcePoint" />
            <Array as="points">
              <mxPoint x="2160" y="690" />
            </Array>
          </mxGeometry>
        </mxCell>
        <mxCell id="QYUV3FebLu_o-XNJqs9x-137" value="REQ‐4.1‐OPER" style="rounded=1;shadow=1;fontStyle=1;fontSize=15;fillColor=#d5e8d4;strokeColor=#000000;" vertex="1" parent="1">
          <mxGeometry x="2205" y="550" width="220" height="60" as="geometry" />
        </mxCell>
        <mxCell id="QYUV3FebLu_o-XNJqs9x-138" value="REQ‐4.2‐OPER" style="rounded=1;shadow=1;fontStyle=1;fontSize=15;fillColor=#d5e8d4;strokeColor=#000000;" vertex="1" parent="1">
          <mxGeometry x="2205" y="660" width="220" height="60" as="geometry" />
        </mxCell>
        <mxCell id="QYUV3FebLu_o-XNJqs9x-139" value="REQ‐2‐OPER" style="rounded=1;shadow=1;fontStyle=1;fontSize=14;fillColor=#d5e8d4;strokeColor=#000000;" vertex="1" parent="1">
          <mxGeometry x="1530" y="380" width="220" height="60" as="geometry" />
        </mxCell>
        <mxCell id="QYUV3FebLu_o-XNJqs9x-140" value="REQ‐3‐OPER" style="rounded=1;shadow=1;fontStyle=1;fontSize=14;fillColor=#d5e8d4;strokeColor=#000000;" vertex="1" parent="1">
          <mxGeometry x="1790" y="380" width="220" height="60" as="geometry" />
        </mxCell>
        <mxCell id="QYUV3FebLu_o-XNJqs9x-141" value="REQ‐1‐OPER" style="rounded=1;shadow=1;fontStyle=1;fontSize=14;fillColor=#d5e8d4;strokeColor=#000000;" vertex="1" parent="1">
          <mxGeometry x="2050" y="380" width="220" height="60" as="geometry" />
        </mxCell>
        <mxCell id="QYUV3FebLu_o-XNJqs9x-167" value="" style="edgeStyle=orthogonalEdgeStyle;rounded=0;orthogonalLoop=1;jettySize=auto;html=1;fillColor=#f8cecc;strokeColor=#000000;" edge="1" parent="1" source="QYUV3FebLu_o-XNJqs9x-170" target="QYUV3FebLu_o-XNJqs9x-173">
          <mxGeometry relative="1" as="geometry">
            <Array as="points">
              <mxPoint x="420" y="900" />
              <mxPoint x="150" y="900" />
            </Array>
          </mxGeometry>
        </mxCell>
        <mxCell id="QYUV3FebLu_o-XNJqs9x-168" style="edgeStyle=orthogonalEdgeStyle;rounded=0;orthogonalLoop=1;jettySize=auto;html=1;exitX=0.5;exitY=1;exitDx=0;exitDy=0;fillColor=#f8cecc;strokeColor=#000000;" edge="1" parent="1" source="QYUV3FebLu_o-XNJqs9x-170" target="QYUV3FebLu_o-XNJqs9x-189">
          <mxGeometry relative="1" as="geometry" />
        </mxCell>
        <mxCell id="QYUV3FebLu_o-XNJqs9x-170" value="SAFETY" style="rounded=1;shadow=1;fontStyle=1;fontSize=14;fillColor=#f8cecc;strokeColor=#000000;" vertex="1" parent="1">
          <mxGeometry x="310" y="780" width="220" height="60" as="geometry" />
        </mxCell>
        <mxCell id="QYUV3FebLu_o-XNJqs9x-171" style="edgeStyle=orthogonalEdgeStyle;rounded=0;orthogonalLoop=1;jettySize=auto;html=1;entryX=0;entryY=0.5;entryDx=0;entryDy=0;fontStyle=0;fontSize=9;fillColor=#f8cecc;strokeColor=#000000;" edge="1" parent="1" source="QYUV3FebLu_o-XNJqs9x-173">
          <mxGeometry relative="1" as="geometry">
            <mxPoint x="130" y="1160" as="targetPoint" />
            <mxPoint x="85" y="965" as="sourcePoint" />
            <Array as="points">
              <mxPoint x="85" y="1160" />
            </Array>
          </mxGeometry>
        </mxCell>
        <mxCell id="QYUV3FebLu_o-XNJqs9x-172" style="edgeStyle=orthogonalEdgeStyle;rounded=0;orthogonalLoop=1;jettySize=auto;html=1;exitX=0.25;exitY=1;exitDx=0;exitDy=0;entryX=0;entryY=0.5;entryDx=0;entryDy=0;fontStyle=0;fontSize=9;fillColor=#f8cecc;strokeColor=#000000;" edge="1" parent="1" source="QYUV3FebLu_o-XNJqs9x-173" target="QYUV3FebLu_o-XNJqs9x-176">
          <mxGeometry relative="1" as="geometry">
            <mxPoint x="100" y="1270" as="targetPoint" />
            <Array as="points">
              <mxPoint x="85" y="1270" />
            </Array>
          </mxGeometry>
        </mxCell>
        <mxCell id="QYUV3FebLu_o-XNJqs9x-173" value="REQ‐1‐SAFETY" style="rounded=1;shadow=1;fontStyle=1;fontSize=15;fillColor=#f8cecc;strokeColor=#000000;" vertex="1" parent="1">
          <mxGeometry x="30" y="970" width="220" height="60" as="geometry" />
        </mxCell>
        <mxCell id="QYUV3FebLu_o-XNJqs9x-174" style="edgeStyle=orthogonalEdgeStyle;rounded=0;orthogonalLoop=1;jettySize=auto;html=1;exitX=0.5;exitY=1;exitDx=0;exitDy=0;entryX=0.56;entryY=-0.001;entryDx=0;entryDy=0;entryPerimeter=0;fillColor=#f8cecc;strokeColor=#000000;" edge="1" parent="1" source="QYUV3FebLu_o-XNJqs9x-170" target="QYUV3FebLu_o-XNJqs9x-190">
          <mxGeometry relative="1" as="geometry" />
        </mxCell>
        <mxCell id="QYUV3FebLu_o-XNJqs9x-175" value="REQ‐1.1‐SAFETY" style="rounded=1;shadow=1;fontStyle=1;fontSize=15;fillColor=#f8cecc;strokeColor=#000000;" vertex="1" parent="1">
          <mxGeometry x="130" y="1130" width="220" height="60" as="geometry" />
        </mxCell>
        <mxCell id="QYUV3FebLu_o-XNJqs9x-176" value="REQ‐1.2‐SAFETY" style="rounded=1;shadow=1;fontStyle=1;fontSize=15;fillColor=#f8cecc;strokeColor=#000000;" vertex="1" parent="1">
          <mxGeometry x="130" y="1240" width="220" height="60" as="geometry" />
        </mxCell>
        <mxCell id="QYUV3FebLu_o-XNJqs9x-177" style="edgeStyle=orthogonalEdgeStyle;rounded=0;orthogonalLoop=1;jettySize=auto;html=1;exitX=0.25;exitY=1;exitDx=0;exitDy=0;entryX=0;entryY=0.5;entryDx=0;entryDy=0;fontStyle=0;fontSize=9;fillColor=#f8cecc;strokeColor=#000000;" edge="1" parent="1">
          <mxGeometry relative="1" as="geometry">
            <mxPoint x="415" y="1163" as="targetPoint" />
            <mxPoint x="370" y="968" as="sourcePoint" />
            <Array as="points">
              <mxPoint x="370" y="1163" />
            </Array>
          </mxGeometry>
        </mxCell>
        <mxCell id="QYUV3FebLu_o-XNJqs9x-178" style="edgeStyle=orthogonalEdgeStyle;rounded=0;orthogonalLoop=1;jettySize=auto;html=1;exitX=0.25;exitY=1;exitDx=0;exitDy=0;entryX=0;entryY=0.5;entryDx=0;entryDy=0;fontStyle=0;fontSize=9;fillColor=#f8cecc;strokeColor=#000000;" edge="1" parent="1" target="QYUV3FebLu_o-XNJqs9x-180">
          <mxGeometry relative="1" as="geometry">
            <mxPoint x="385" y="1270" as="targetPoint" />
            <mxPoint x="370" y="1030" as="sourcePoint" />
            <Array as="points">
              <mxPoint x="370" y="1270" />
            </Array>
          </mxGeometry>
        </mxCell>
        <mxCell id="QYUV3FebLu_o-XNJqs9x-179" value="REQ‐2.1‐SAFETY" style="rounded=1;shadow=1;fontStyle=1;fontSize=15;fillColor=#f8cecc;strokeColor=#000000;" vertex="1" parent="1">
          <mxGeometry x="415" y="1130" width="220" height="60" as="geometry" />
        </mxCell>
        <mxCell id="QYUV3FebLu_o-XNJqs9x-180" value="REQ‐2.2‐SAFETY" style="rounded=1;shadow=1;fontStyle=1;fontSize=15;fillColor=#f8cecc;strokeColor=#000000;" vertex="1" parent="1">
          <mxGeometry x="415" y="1240" width="220" height="60" as="geometry" />
        </mxCell>
        <mxCell id="QYUV3FebLu_o-XNJqs9x-181" style="edgeStyle=orthogonalEdgeStyle;rounded=0;orthogonalLoop=1;jettySize=auto;html=1;exitX=0.25;exitY=1;exitDx=0;exitDy=0;entryX=0;entryY=0.5;entryDx=0;entryDy=0;fontStyle=0;fontSize=9;fillColor=#f8cecc;strokeColor=#000000;" edge="1" parent="1" target="QYUV3FebLu_o-XNJqs9x-183">
          <mxGeometry relative="1" as="geometry">
            <mxPoint x="665" y="1155" as="targetPoint" />
            <mxPoint x="650" y="965" as="sourcePoint" />
            <Array as="points">
              <mxPoint x="650" y="1160" />
            </Array>
          </mxGeometry>
        </mxCell>
        <mxCell id="QYUV3FebLu_o-XNJqs9x-182" style="edgeStyle=orthogonalEdgeStyle;rounded=0;orthogonalLoop=1;jettySize=auto;html=1;exitX=0.25;exitY=1;exitDx=0;exitDy=0;entryX=0;entryY=0.5;entryDx=0;entryDy=0;fontStyle=0;fontSize=9;fillColor=#f8cecc;strokeColor=#000000;" edge="1" parent="1" target="QYUV3FebLu_o-XNJqs9x-184">
          <mxGeometry relative="1" as="geometry">
            <mxPoint x="665" y="1270" as="targetPoint" />
            <mxPoint x="650" y="1030" as="sourcePoint" />
            <Array as="points">
              <mxPoint x="650" y="1270" />
            </Array>
          </mxGeometry>
        </mxCell>
        <mxCell id="QYUV3FebLu_o-XNJqs9x-183" value="REQ‐3.1‐SAFETY" style="rounded=1;shadow=1;fontStyle=1;fontSize=15;fillColor=#f8cecc;strokeColor=#000000;" vertex="1" parent="1">
          <mxGeometry x="695" y="1130" width="220" height="60" as="geometry" />
        </mxCell>
        <mxCell id="QYUV3FebLu_o-XNJqs9x-184" value="REQ‐3.2‐SAFETY" style="rounded=1;shadow=1;fontStyle=1;fontSize=15;fillColor=#f8cecc;strokeColor=#000000;" vertex="1" parent="1">
          <mxGeometry x="695" y="1240" width="220" height="60" as="geometry" />
        </mxCell>
        <mxCell id="QYUV3FebLu_o-XNJqs9x-189" value="REQ‐2‐SAFETY" style="rounded=1;shadow=1;fontStyle=1;fontSize=14;fillColor=#f8cecc;strokeColor=#000000;" vertex="1" parent="1">
          <mxGeometry x="310" y="960" width="220" height="60" as="geometry" />
        </mxCell>
        <mxCell id="QYUV3FebLu_o-XNJqs9x-190" value="REQ‐3‐SAFETY" style="rounded=1;shadow=1;fontStyle=1;fontSize=14;fillColor=#f8cecc;strokeColor=#000000;" vertex="1" parent="1">
          <mxGeometry x="570" y="960" width="220" height="60" as="geometry" />
        </mxCell>
        <mxCell id="QYUV3FebLu_o-XNJqs9x-192" value="" style="edgeStyle=orthogonalEdgeStyle;rounded=0;orthogonalLoop=1;jettySize=auto;html=1;fillColor=#ffe6cc;strokeColor=#000000;" edge="1" parent="1">
          <mxGeometry relative="1" as="geometry">
            <Array as="points">
              <mxPoint x="1241" y="919" />
              <mxPoint x="1110" y="919" />
            </Array>
            <mxPoint x="1241.000000000001" y="876" as="sourcePoint" />
            <mxPoint x="1110" y="969" as="targetPoint" />
          </mxGeometry>
        </mxCell>
        <mxCell id="QYUV3FebLu_o-XNJqs9x-193" style="edgeStyle=orthogonalEdgeStyle;rounded=0;orthogonalLoop=1;jettySize=auto;html=1;exitX=0.5;exitY=1;exitDx=0;exitDy=0;fillColor=#ffe6cc;strokeColor=#000000;" edge="1" parent="1" source="QYUV3FebLu_o-XNJqs9x-194" target="QYUV3FebLu_o-XNJqs9x-209">
          <mxGeometry relative="1" as="geometry" />
        </mxCell>
        <mxCell id="QYUV3FebLu_o-XNJqs9x-194" value="WARNINGS" style="rounded=1;shadow=1;fontStyle=1;fontSize=14;fillColor=#ffe6cc;strokeColor=#000000;" vertex="1" parent="1">
          <mxGeometry x="1131" y="817" width="220" height="60" as="geometry" />
        </mxCell>
        <mxCell id="QYUV3FebLu_o-XNJqs9x-195" style="edgeStyle=orthogonalEdgeStyle;rounded=0;orthogonalLoop=1;jettySize=auto;html=1;entryX=0;entryY=0.5;entryDx=0;entryDy=0;fontStyle=0;fontSize=9;fillColor=#ffe6cc;strokeColor=#000000;" edge="1" parent="1" source="QYUV3FebLu_o-XNJqs9x-197">
          <mxGeometry relative="1" as="geometry">
            <mxPoint x="1090" y="1160" as="targetPoint" />
            <mxPoint x="1045" y="965" as="sourcePoint" />
            <Array as="points">
              <mxPoint x="1045" y="1160" />
            </Array>
          </mxGeometry>
        </mxCell>
        <mxCell id="QYUV3FebLu_o-XNJqs9x-196" style="edgeStyle=orthogonalEdgeStyle;rounded=0;orthogonalLoop=1;jettySize=auto;html=1;exitX=0.25;exitY=1;exitDx=0;exitDy=0;entryX=0;entryY=0.5;entryDx=0;entryDy=0;fontStyle=0;fontSize=9;fillColor=#ffe6cc;strokeColor=#000000;" edge="1" parent="1" source="QYUV3FebLu_o-XNJqs9x-197" target="QYUV3FebLu_o-XNJqs9x-200">
          <mxGeometry relative="1" as="geometry">
            <mxPoint x="1060" y="1270" as="targetPoint" />
            <Array as="points">
              <mxPoint x="1045" y="1270" />
            </Array>
          </mxGeometry>
        </mxCell>
        <mxCell id="QYUV3FebLu_o-XNJqs9x-197" value="REQ‐1‐WARNINGS" style="rounded=1;shadow=1;fontStyle=1;fontSize=15;fillColor=#ffe6cc;strokeColor=#000000;" vertex="1" parent="1">
          <mxGeometry x="990" y="970" width="220" height="60" as="geometry" />
        </mxCell>
        <mxCell id="QYUV3FebLu_o-XNJqs9x-199" value="REQ‐1.1‐WARNINGS" style="rounded=1;shadow=1;fontStyle=1;fontSize=15;fillColor=#ffe6cc;strokeColor=#000000;" vertex="1" parent="1">
          <mxGeometry x="1090" y="1130" width="220" height="60" as="geometry" />
        </mxCell>
        <mxCell id="QYUV3FebLu_o-XNJqs9x-200" value="REQ‐1.2‐WARNINGS" style="rounded=1;shadow=1;fontStyle=1;fontSize=15;fillColor=#ffe6cc;strokeColor=#000000;" vertex="1" parent="1">
          <mxGeometry x="1090" y="1240" width="220" height="60" as="geometry" />
        </mxCell>
        <mxCell id="QYUV3FebLu_o-XNJqs9x-201" style="edgeStyle=orthogonalEdgeStyle;rounded=0;orthogonalLoop=1;jettySize=auto;html=1;exitX=0.25;exitY=1;exitDx=0;exitDy=0;entryX=0;entryY=0.5;entryDx=0;entryDy=0;fontStyle=0;fontSize=9;fillColor=#ffe6cc;strokeColor=#000000;" edge="1" parent="1">
          <mxGeometry relative="1" as="geometry">
            <mxPoint x="1375" y="1163" as="targetPoint" />
            <mxPoint x="1330" y="968" as="sourcePoint" />
            <Array as="points">
              <mxPoint x="1330" y="1163" />
            </Array>
          </mxGeometry>
        </mxCell>
        <mxCell id="QYUV3FebLu_o-XNJqs9x-202" style="edgeStyle=orthogonalEdgeStyle;rounded=0;orthogonalLoop=1;jettySize=auto;html=1;exitX=0.25;exitY=1;exitDx=0;exitDy=0;entryX=0;entryY=0.5;entryDx=0;entryDy=0;fontStyle=0;fontSize=9;fillColor=#ffe6cc;strokeColor=#000000;" edge="1" parent="1" target="QYUV3FebLu_o-XNJqs9x-204">
          <mxGeometry relative="1" as="geometry">
            <mxPoint x="1345" y="1270" as="targetPoint" />
            <mxPoint x="1330" y="1030" as="sourcePoint" />
            <Array as="points">
              <mxPoint x="1330" y="1270" />
            </Array>
          </mxGeometry>
        </mxCell>
        <mxCell id="QYUV3FebLu_o-XNJqs9x-203" value="REQ‐2.1‐WARNINGS" style="rounded=1;shadow=1;fontStyle=1;fontSize=15;fillColor=#ffe6cc;strokeColor=#000000;" vertex="1" parent="1">
          <mxGeometry x="1375" y="1130" width="220" height="60" as="geometry" />
        </mxCell>
        <mxCell id="QYUV3FebLu_o-XNJqs9x-204" value="REQ‐2.2‐WARNINGS" style="rounded=1;shadow=1;fontStyle=1;fontSize=15;fillColor=#ffe6cc;strokeColor=#000000;" vertex="1" parent="1">
          <mxGeometry x="1375" y="1240" width="220" height="60" as="geometry" />
        </mxCell>
        <mxCell id="QYUV3FebLu_o-XNJqs9x-209" value="REQ‐2‐WARNINGS" style="rounded=1;shadow=1;fontStyle=1;fontSize=14;fillColor=#ffe6cc;strokeColor=#000000;" vertex="1" parent="1">
          <mxGeometry x="1270" y="960" width="220" height="60" as="geometry" />
        </mxCell>
        <mxCell id="QYUV3FebLu_o-XNJqs9x-211" value="" style="edgeStyle=orthogonalEdgeStyle;rounded=0;orthogonalLoop=1;jettySize=auto;html=1;fillColor=#fad9d5;strokeColor=#000000;" edge="1" parent="1">
          <mxGeometry relative="1" as="geometry">
            <Array as="points">
              <mxPoint x="1973.5" y="929" />
              <mxPoint x="1842.5" y="929" />
            </Array>
            <mxPoint x="1973.500000000001" y="886" as="sourcePoint" />
            <mxPoint x="1842.5" y="979" as="targetPoint" />
          </mxGeometry>
        </mxCell>
        <mxCell id="QYUV3FebLu_o-XNJqs9x-212" style="edgeStyle=orthogonalEdgeStyle;rounded=0;orthogonalLoop=1;jettySize=auto;html=1;exitX=0.5;exitY=1;exitDx=0;exitDy=0;fillColor=#fad9d5;strokeColor=#000000;" edge="1" parent="1" source="QYUV3FebLu_o-XNJqs9x-213" target="QYUV3FebLu_o-XNJqs9x-223">
          <mxGeometry relative="1" as="geometry" />
        </mxCell>
        <mxCell id="QYUV3FebLu_o-XNJqs9x-213" value="MD" style="rounded=1;shadow=1;fontStyle=1;fontSize=14;fillColor=#fad9d5;strokeColor=#000000;" vertex="1" parent="1">
          <mxGeometry x="1863.5" y="827" width="220" height="60" as="geometry" />
        </mxCell>
        <mxCell id="QYUV3FebLu_o-XNJqs9x-214" style="edgeStyle=orthogonalEdgeStyle;rounded=0;orthogonalLoop=1;jettySize=auto;html=1;entryX=0;entryY=0.5;entryDx=0;entryDy=0;fontStyle=0;fontSize=9;fillColor=#fad9d5;strokeColor=#000000;" edge="1" parent="1" source="QYUV3FebLu_o-XNJqs9x-216">
          <mxGeometry relative="1" as="geometry">
            <mxPoint x="1822.5" y="1170" as="targetPoint" />
            <mxPoint x="1777.5" y="975" as="sourcePoint" />
            <Array as="points">
              <mxPoint x="1777.5" y="1170" />
            </Array>
          </mxGeometry>
        </mxCell>
        <mxCell id="QYUV3FebLu_o-XNJqs9x-215" style="edgeStyle=orthogonalEdgeStyle;rounded=0;orthogonalLoop=1;jettySize=auto;html=1;exitX=0.25;exitY=1;exitDx=0;exitDy=0;entryX=0;entryY=0.5;entryDx=0;entryDy=0;fontStyle=0;fontSize=9;fillColor=#fad9d5;strokeColor=#000000;" edge="1" parent="1" source="QYUV3FebLu_o-XNJqs9x-216" target="QYUV3FebLu_o-XNJqs9x-218">
          <mxGeometry relative="1" as="geometry">
            <mxPoint x="1792.5" y="1280" as="targetPoint" />
            <Array as="points">
              <mxPoint x="1777.5" y="1280" />
            </Array>
          </mxGeometry>
        </mxCell>
        <mxCell id="QYUV3FebLu_o-XNJqs9x-216" value="REQ‐1‐MD" style="rounded=1;shadow=1;fontStyle=1;fontSize=15;fillColor=#fad9d5;strokeColor=#000000;" vertex="1" parent="1">
          <mxGeometry x="1722.5" y="980" width="220" height="60" as="geometry" />
        </mxCell>
        <mxCell id="QYUV3FebLu_o-XNJqs9x-217" value="REQ‐1.1‐MD" style="rounded=1;shadow=1;fontStyle=1;fontSize=15;fillColor=#fad9d5;strokeColor=#000000;" vertex="1" parent="1">
          <mxGeometry x="1822.5" y="1140" width="220" height="60" as="geometry" />
        </mxCell>
        <mxCell id="QYUV3FebLu_o-XNJqs9x-218" value="REQ‐1.2‐MD" style="rounded=1;shadow=1;fontStyle=1;fontSize=15;fillColor=#fad9d5;strokeColor=#000000;" vertex="1" parent="1">
          <mxGeometry x="1822.5" y="1250" width="220" height="60" as="geometry" />
        </mxCell>
        <mxCell id="QYUV3FebLu_o-XNJqs9x-219" style="edgeStyle=orthogonalEdgeStyle;rounded=0;orthogonalLoop=1;jettySize=auto;html=1;exitX=0.25;exitY=1;exitDx=0;exitDy=0;entryX=0;entryY=0.5;entryDx=0;entryDy=0;fontStyle=0;fontSize=9;fillColor=#fad9d5;strokeColor=#000000;" edge="1" parent="1">
          <mxGeometry relative="1" as="geometry">
            <mxPoint x="2107.5" y="1173" as="targetPoint" />
            <mxPoint x="2062.5" y="978" as="sourcePoint" />
            <Array as="points">
              <mxPoint x="2062.5" y="1173" />
            </Array>
          </mxGeometry>
        </mxCell>
        <mxCell id="QYUV3FebLu_o-XNJqs9x-220" style="edgeStyle=orthogonalEdgeStyle;rounded=0;orthogonalLoop=1;jettySize=auto;html=1;exitX=0.25;exitY=1;exitDx=0;exitDy=0;entryX=0;entryY=0.5;entryDx=0;entryDy=0;fontStyle=0;fontSize=9;fillColor=#fad9d5;strokeColor=#000000;" edge="1" parent="1" target="QYUV3FebLu_o-XNJqs9x-222">
          <mxGeometry relative="1" as="geometry">
            <mxPoint x="2077.5" y="1280" as="targetPoint" />
            <mxPoint x="2062.5" y="1040" as="sourcePoint" />
            <Array as="points">
              <mxPoint x="2062.5" y="1280" />
            </Array>
          </mxGeometry>
        </mxCell>
        <mxCell id="QYUV3FebLu_o-XNJqs9x-221" value="REQ‐2.1‐MD" style="rounded=1;shadow=1;fontStyle=1;fontSize=15;fillColor=#fad9d5;strokeColor=#000000;" vertex="1" parent="1">
          <mxGeometry x="2107.5" y="1140" width="220" height="60" as="geometry" />
        </mxCell>
        <mxCell id="QYUV3FebLu_o-XNJqs9x-222" value="REQ‐2.2‐MD" style="rounded=1;shadow=1;fontStyle=1;fontSize=15;fillColor=#fad9d5;strokeColor=#000000;" vertex="1" parent="1">
          <mxGeometry x="2107.5" y="1250" width="220" height="60" as="geometry" />
        </mxCell>
        <mxCell id="QYUV3FebLu_o-XNJqs9x-223" value="REQ‐2‐MD" style="rounded=1;shadow=1;fontStyle=1;fontSize=14;fillColor=#fad9d5;strokeColor=#000000;" vertex="1" parent="1">
          <mxGeometry x="2002.5" y="970" width="220" height="60" as="geometry" />
        </mxCell>
      </root>
    </mxGraphModel>
  </diagram>
</mxfile>
